<?xml version="1.0" standalone="no"?>
<svg viewBox="0 0 200 200" xmlns="http://www.w3.org/2000/svg">
  <path fill="#0F62FE" d="M38.7,-63.9C45.5,-63.2,43.1,-43.3,50.8,-29.5C58.5,-15.7,76.2,-7.8,80.3,2.4C84.4,12.6,74.9,25.2,62,30C49.2,34.9,33.1,32.1,22.2,41.2C11.3,50.3,5.6,71.3,0.6,70.3C-4.4,69.2,-8.9,46.1,-17.5,35.7C-26.1,25.3,-38.8,27.5,-42.7,23.7C-46.7,19.8,-41.8,9.9,-38.3,2C-34.8,-5.9,-32.7,-11.8,-34.6,-25.8C-36.5,-39.8,-42.5,-61.9,-37.4,-63.7C-32.3,-65.4,-16.2,-46.9,-0.1,-46.7C16,-46.5,31.9,-64.7,38.7,-63.9Z" transform="translate(100 100)" />
</svg>
